HIERARCHY
ROOT pelvis
{
  OFFSET 0 100 0
  CHANNELS 6 Xposition Yposition Zposition Zrotation Xrotation Yrotation
  JOINT pelvis_right_femur
  {
    OFFSET -10.78128 -3.44521 -0.5502486
    CHANNELS 3 Zrotation Xrotation Yrotation
    JOINT right_femur_tibia
    {
      OFFSET -0.8047443 -44.0398 -0.1307829
      CHANNELS 3 Zrotation Xrotation Yrotation
      JOINT right_tibia_foot
      {
        OFFSET 3.006224 -47.83518 -5
        CHANNELS 3 Zrotation Xrotation Yrotation
        End Site
        {
          OFFSET 0 -5 15
        }
      }
    }
  }
  JOINT pelvis_left_femur
  {
    OFFSET 10.78128 -3.44521 -0.5502486
    CHANNELS 3 Zrotation Xrotation Yrotation
    JOINT left_femur_tibia
    {
      OFFSET 0.8047443 -44.0398 -0.1307829
      CHANNELS 3 Zrotation Xrotation Yrotation
      JOINT left_tibia_foot
      {
        OFFSET -4.370144 -48.10324 -4.275266
        CHANNELS 3 Zrotation Xrotation Yrotation
        End Site
        {
          OFFSET 0 -5 15
        }
      }
    }
  }
  JOINT pelvis_spine1
  {
    OFFSET 0 6.468898 -3.129235
    CHANNELS 3 Zrotation Xrotation Yrotation
    JOINT spine1
    {
      OFFSET 0 23.15396 4.99043
      CHANNELS 3 Zrotation Xrotation Yrotation
      JOINT spine2
      {
        OFFSET 0 20.79997 -5.064912
        CHANNELS 3 Zrotation Xrotation Yrotation
        JOINT neck
        {
          OFFSET 0 14.38658 9.616178
          CHANNELS 3 Zrotation Xrotation Yrotation
          End Site
          {
            OFFSET 0 20 0
          }
        }
      }
      JOINT right_manubrium
      {
        OFFSET -5.722621 16.35077 3.967754
        CHANNELS 3 Zrotation Xrotation Yrotation
        JOINT right_clavicle
        {
          OFFSET -13.16364 1.694482 -4.693211
          CHANNELS 3 Zrotation Xrotation Yrotation
          JOINT right_humerus
          {
            OFFSET -28.5034 -0.3100689 -2.792744
            CHANNELS 3 Zrotation Xrotation Yrotation
            JOINT right_radius
            {
              OFFSET -25.15693 0.02248979 -1.271978
              CHANNELS 3 Zrotation Xrotation Yrotation
              End Site
              {
                OFFSET -15 0 0
              }
            }
          }
        }
      }
      JOINT left_manubrium
      {
        OFFSET 5.722621 16.35077 3.967754
        CHANNELS 3 Zrotation Xrotation Yrotation
        JOINT left_clavicle
        {
          OFFSET 13.16364 1.694482 -4.693211
          CHANNELS 3 Zrotation Xrotation Yrotation
          JOINT left_humerus
          {
            OFFSET 29.39168 -1.063119 -2.237045
            CHANNELS 3 Zrotation Xrotation Yrotation
            JOINT left_radius
            {
              OFFSET 24.59957 -0.9528479 0.9047498
              CHANNELS 3 Zrotation Xrotation Yrotation
              End Site
              {
                OFFSET 15 -0 -0
              }
            }
          }
        }
      }
    }
  }
}
MOTION
Frames: 7
Frame Time: 0.0416666666667
-753.0481 71.95677 2811.141 -1.849281 0.3157634 -1.720117 7.054033 -22.66911 4.175187 -0 15.57617 -0 -5.215242 -4.608631 -4.693647 -2.817789 13.08249 -10.73414 -0 40.74081 -0 -7.842433 -8.890566 9.053791 1.239372 -3.632762 6.733675 -0.6181525 15.9123 -4.317462 2.448614 20.71785 2.062369 -0.01986669 -19.0791 5.860735 -2.58695 -28.85754 12.1415 88.98025 15.13959 -8.217132 -0 0 25.68614 -25.62693 17.96429 17.70464 2.640578 -21.16705 -7.156212 -95.90437 14.05246 33.93346 0 0 -7.720608 5.412501 17.21117 7.204192
-753.6607 73.17913 2817.511 -2.404357 -0.9393987 -2.428647 8.094744 -17.7154 4.673456 -0 16.95205 -0 -6.746577 -5.998739 -4.098437 -2.290882 8.823652 -10.30516 -0 53.30722 -0 -9.075025 -5.826923 10.08631 1.206805 -3.638494 6.890757 -0.6420708 15.52151 -4.142218 2.338287 20.45893 1.890147 -0.216152 -18.80024 5.692891 -2.457276 -29.48383 12.02666 88.21355 15.8093 -6.840053 -0 0 27.3071 -25.38385 17.97424 18.23933 2.44634 -20.4264 -6.701566 -95.99317 13.51824 35.17103 0 0 -7.127802 4.903539 16.86871 7.730027
-754.2237 74.80358 2823.562 -1.980673 -3.661074 -3.439384 7.711942 -11.2052 4.19469 -0 16.69597 -0 -7.782539 -5.972919 -4.027706 -2.58491 3.347699 -9.00743 -0 63.02671 -0 -8.677801 -5.126381 12.05606 1.124506 -3.605838 7.018785 -0.6484792 14.90263 -3.935372 2.192719 20.23525 1.741683 -0.4604668 -18.46292 5.550208 -2.349619 -30.12057 11.84279 87.28906 16.67974 -5.140819 -0 0 29.02583 -25.06041 17.82399 18.91212 2.213439 -19.44407 -6.07374 -95.99755 12.96691 36.52305 0 0 -6.498304 4.311622 16.51753 8.387574
-754.6628 76.29438 2829.186 -0.8763318 -4.997993 -4.198061 6.043253 -5.092964 3.478643 -0 14.03338 -0 -6.426395 -7.475736 -3.214906 -2.661939 -4.717787 -8.093073 -0 63.93162 -0 -8.50519 -5.487989 12.27095 1.018956 -3.556901 7.145958 -0.5924198 14.09447 -3.809279 1.992486 19.94748 1.569975 -0.8521827 -18.15907 5.4274 -2.372014 -30.88737 11.56246 86.34871 17.66888 -3.262446 -0 0 30.91573 -24.58904 17.58702 19.73799 1.883761 -18.25484 -5.269033 -95.76304 12.3963 38.05765 0 0 -6.300209 3.523517 16.023 9.397294
-755.0133 77.16535 2834.637 0.09662788 -5.328817 -4.705313 4.644447 -0.1450953 3.590339 -0 11.15346 -0 -3.795501 -9.919584 -2.327423 -1.933983 -12.27029 -6.817044 -0 58.85303 -0 -8.075932 -5.992443 12.73805 0.8288119 -3.394241 7.187233 -0.5785996 12.97229 -3.658653 1.835201 19.75841 1.446708 -1.336881 -17.96286 5.473781 -2.69543 -31.49717 11.06532 85.54045 18.78655 -1.254652 -0 0 32.5493 -24.18218 17.06246 20.65325 1.594498 -16.78106 -4.242179 -95.31361 12.10586 39.2829 0 0 -6.39273 2.533617 15.50855 10.67674
-755.3311 77.32963 2840.021 0.3305173 -6.106259 -5.26902 4.431049 4.548924 4.042823 -0 9.806534 -0 -2.741124 -11.96823 -2.174485 -0.5891295 -17.57187 -5.293392 -0 51.77267 -0 -6.685781 -6.111346 15.09384 0.4902319 -3.024873 7.075816 -0.7919461 11.49397 -3.194836 1.863971 19.98613 1.532739 -1.620807 -17.82468 5.814424 -3.298796 -31.44694 10.3429 84.80611 20.02296 0.9039868 -0 0 33.31777 -24.27126 15.97634 21.4618 1.611404 -15.07427 -3.08489 -95.07265 12.372 39.56107 0 0 -5.769987 1.582378 15.31917 11.66643
-755.6149 76.93967 2845.375 0.01662958 -6.687261 -5.996503 4.774688 8.794196 3.896662 -0 9.194446 -0 -3.37742 -13.37412 -2.149018 0.9319839 -21.46325 -3.953828 -0 43.14651 -0 -5.279831 -6.066702 17.59845 0.1105279 -2.539542 6.957813 -1.154397 10.01192 -2.549104 2.020846 20.46077 1.761007 -1.673927 -17.7589 6.282863 -4.02128 -30.93739 9.576031 84.2317 21.12066 2.799637 -0 0 33.40763 -24.69182 14.552 21.9428 1.871193 -13.49613 -2.0603 -95.14549 13.04201 39.16504 0 0 -4.659442 0.7010857 15.19122 12.40159
